<svg width="600" height="600" xmlns="http://www.w3.org/2000/svg">
 <defs>
  <linearGradient id="svg_31">
   <stop stop-color="#007bf8" offset="0%"/>
   <stop stop-color="#f800cb" offset="100%"/>
  </linearGradient>
 </defs>
 <g>
  <title>Layer 1</title>
  <g transform="rotate(-90 190.492 310.564)" stroke="null">
   <path stroke="null" fill="#fff" d="m363.02285,377.80469s-0.57314,-3.51646 -0.90821,-3.48472l-63.80768,6.15645c-5.07717,0.49026 -9.02041,4.5393 -9.37664,9.62706l-1.75294,25.12487l-49.36445,3.52175l-3.35774,-22.77057c-0.74773,-5.06483 -5.17064,-8.88285 -10.29014,-8.88285l-67.3453,0c-5.11774,0 -9.54064,3.81802 -10.28838,8.88285l-3.35951,22.77057l-49.36445,-3.52175l-1.75294,-25.12487c-0.35623,-5.08952 -4.29946,-9.13856 -9.37664,-9.62882l-63.83943,-6.15468c-0.32978,-0.03174 -0.57138,3.48824 -0.90116,3.48824l-0.08641,13.80836l54.066,8.71884l1.77057,25.34884c0.35799,5.13184 4.49874,9.28141 9.63411,9.64998l67.98546,4.84968c0.25747,0.01764 0.51142,0.02822 0.76537,0.02822c5.10892,0 9.52477,-3.81978 10.2725,-8.88461l3.45474,-23.43013l49.38738,0l3.45474,23.43013c0.74597,5.06307 5.16711,8.88285 10.28309,8.88285c0.25042,0 0.50084,-0.00882 0.74597,-0.02645l67.99428,-4.84968c5.13361,-0.36858 9.27612,-4.51814 9.63411,-9.64998l1.76881,-25.34884l54.04307,-8.75764l-0.08818,-13.77309z"/>
   <path stroke="null" fill="#478cbf" d="m17.93642,273.68462l0,83.79189l0,10.64284l0,9.68525c0.19046,0.00176 0.38092,0.00882 0.56962,0.02645l63.83237,6.15468c3.34363,0.32272 5.96422,3.01386 6.19701,6.36454l1.96809,28.17752l55.68138,3.97321l3.83566,-26.00663c0.49731,-3.37185 3.38949,-5.87076 6.80013,-5.87076l67.3453,0c3.40888,0 6.30106,2.49891 6.79837,5.87076l3.83566,26.00663l55.68315,-3.97321l1.96632,-28.17752c0.23455,-3.35069 2.85338,-6.04006 6.19701,-6.36454l63.80768,-6.15468c0.1887,-0.01764 0.37739,-0.02469 0.56785,-0.02645l0,-8.30794l0.02645,-0.00882l0,-95.80323c8.98852,-11.31557 17.49982,-23.79731 24.02091,-34.2987c-9.96565,-16.96506 -22.17626,-32.12604 -35.22808,-46.17248c-12.1048,6.09296 -23.86219,12.99538 -34.96708,20.34044c-5.55685,-5.52334 -11.81558,-10.04148 -17.96322,-14.76419c-6.04006,-4.85144 -12.84724,-8.40846 -19.30349,-12.55274c1.92224,-14.31449 2.87277,-28.40678 3.25546,-43.11454c-16.65821,-8.38377 -34.42215,-13.94239 -52.39065,-17.935c-7.174,12.05719 -13.73429,25.11429 -19.4481,37.87865c-6.77544,-1.13218 -13.58263,-1.5519 -20.39864,-1.63302l0,-0.01058c-0.04762,0 -0.0917,0.01058 -0.13226,0.01058c-0.04232,0 -0.08641,-0.01058 -0.12874,-0.01058l0,0.01058c-6.82835,0.08112 -13.63025,0.50084 -20.40745,1.63302c-5.71028,-12.76436 -12.26705,-25.82146 -19.45163,-37.87865c-17.95969,3.99261 -35.72539,9.55122 -52.38184,17.935c0.38092,14.70776 1.33146,28.80005 3.25899,43.11454c-6.46859,4.14427 -13.26696,7.70129 -19.30878,12.55274c-6.13881,4.72271 -12.40813,9.24085 -17.96674,14.76419c-11.10489,-7.34506 -22.85875,-14.24748 -34.96708,-20.34044c-13.05181,14.04644 -25.25537,29.20742 -35.22455,46.17248c7.83472,12.29824 16.23844,24.65911 24.02091,34.2987z"/>
   <path stroke="null" fill="#478cbf" d="m305.75745,397.11116l-1.97691,28.32742c-0.23808,3.41417 -2.9539,6.13176 -6.36807,6.37689l-67.99252,4.85144c-0.16577,0.01234 -0.33154,0.01764 -0.49555,0.01764c-3.3789,0 -6.294,-2.47951 -6.79308,-5.87252l-3.89914,-26.44222l-55.47858,0l-3.89914,26.44222c-0.52377,3.55878 -3.70516,6.11765 -7.28863,5.85489l-67.99252,-4.85144c-3.41417,-0.24513 -6.13,-2.96271 -6.36807,-6.37689l-1.97691,-28.32742l-57.39729,-5.53393c0.02645,6.16879 0.10581,12.9266 0.10581,14.27217c0,60.61924 76.89829,89.75612 172.43875,90.09119l0.11639,0l0.11816,0c95.54046,-0.33507 172.4123,-29.47195 172.4123,-90.09119c0,-1.37026 0.08289,-8.09985 0.1111,-14.27217l-57.37612,5.53393z"/>
   <path stroke="null" fill="#fff" d="m138.47363,315.95038c0,21.25394 -17.22077,38.47119 -38.46766,38.47119c-21.23631,0 -38.46237,-17.21725 -38.46237,-38.47119c0,-21.23984 17.22606,-38.44826 38.46237,-38.44826c21.24689,0 38.46766,17.20843 38.46766,38.44826"/>
   <path stroke="null" fill="#414042" d="m129.21757,318.23209c0,14.09758 -11.42585,25.52343 -25.53401,25.52343c-14.10111,0 -25.53401,-11.42585 -25.53401,-25.52343s11.4329,-25.53401 25.53401,-25.53401c14.10816,0 25.53401,11.43643 25.53401,25.53401"/>
   <path stroke="null" fill="#fff" d="m190.48963,357.92148c-6.83893,0 -12.38167,-5.04014 -12.38167,-11.25302l0,-35.41325c0,-6.20759 5.54274,-11.25302 12.38167,-11.25302s12.39402,5.04543 12.39402,11.25302l0,35.41325c0,6.21288 -5.55509,11.25302 -12.39402,11.25302"/>
   <path stroke="null" fill="#fff" d="m242.51206,315.95038c0,21.25394 17.22077,38.47119 38.47119,38.47119c21.23454,0 38.45885,-17.21725 38.45885,-38.47119c0,-21.23984 -17.2243,-38.44826 -38.45885,-38.44826c-21.25042,0 -38.47119,17.20843 -38.47119,38.44826"/>
   <path stroke="null" fill="#414042" d="m251.77046,318.23209c0,14.09758 11.42232,25.52343 25.5199,25.52343c14.11169,0 25.53401,-11.42585 25.53401,-25.52343s-11.42232,-25.53401 -25.53401,-25.53401c-14.09758,0 -25.5199,11.43643 -25.5199,25.53401"/>
  </g>
  <rect stroke="#000" stroke-width="20" id="svg_1" height="524.99999" width="354.84615" y="35.69231" x="154.23077" fill="#fff"/>
  <rect stroke="#000" id="svg_35" height="27.69231" width="303.07692" y="218.79322" x="176.15385" stroke-width="0" fill="#777777"/>
  <rect stroke="#000" id="svg_36" height="27.69231" width="303.07692" y="96.58523" x="176.15385" stroke-width="0" fill="#777777"/>
  <rect stroke="#000" id="svg_37" height="27.69231" width="303.07692" y="344.23982" x="176.15385" stroke-width="0" fill="#777777"/>
  <rect stroke="#000" id="svg_38" height="27.69231" width="303.07692" y="474.09489" x="177.69231" stroke-width="0" fill="#777777"/>
  <g transform="rotate(-8.19811 330.661 285.447)" stroke="null">

   <g stroke="null" transform="translate(0 0)">
    <path stroke="null" fill="url(#svg_31)" d="m346.36691,304.83969c8.5824,21.11308 18.53781,37.00569 29.86764,47.6807c11.49988,10.43807 24.45921,15.65662 38.87797,15.65662c17.33625,0 31.49784,-7.9463 42.48336,-23.84083c10.98553,-16.13051 16.47829,-36.64931 16.47899,-61.55735c0,-23.9593 -5.06343,-43.88574 -15.1903,-59.7793c-10.12826,-15.8926 -22.83041,-23.84083 -38.10713,-23.84083c-13.90441,0 -26.52083,7.9463 -37.84926,23.84083c-11.15837,15.65662 -23.34477,42.93603 -36.56266,81.84016m-31.41211,-38.07482c-8.41025,-20.87421 -18.36636,-36.52987 -29.86694,-46.96794c-11.32843,-10.43614 -24.28776,-15.65566 -38.87797,-15.65566c-17.33695,0 -31.49784,7.9463 -42.48336,23.84083c-10.98622,15.65566 -16.47829,35.93751 -16.47829,60.84555c0,23.9593 5.06343,43.88477 15.1903,59.77834c10.12687,15.8926 22.82971,23.84083 38.10713,23.84083c13.90441,0 26.4344,-7.82783 37.59208,-23.48445c11.32843,-15.65662 23.60195,-43.05451 36.81915,-82.19654m18.28133,65.11633c-12.18779,32.26198 -24.97566,55.86491 -38.36431,70.80973c-13.2179,14.94483 -27.98027,22.41724 -44.2871,22.41724c-23.17262,0 -42.82696,-13.28429 -58.96165,-39.85287c-15.96393,-26.56858 -23.94555,-59.42292 -23.94555,-98.56304c0,-41.51341 7.12296,-75.08051 21.37027,-100.70131c14.41876,-25.61791 33.12873,-38.42735 56.12989,-38.42831c16.30684,0 30.89636,7.35394 43.77135,22.06182c12.8729,14.46997 25.7472,38.42928 38.62149,71.87695c11.67203,-32.73587 24.28915,-56.81365 37.84926,-72.23333c13.5608,-15.65566 28.66608,-23.48445 45.31652,-23.48445c22.82832,0 42.31052,13.40276 58.44729,40.20829c16.30544,26.80552 24.45921,59.89778 24.45921,99.27579c0,41.27646 -7.20938,74.72413 -21.62815,100.34493c-14.24731,25.38001 -32.87155,38.07193 -55.87202,38.07193c-16.30753,0 -30.81272,-6.87909 -43.51347,-20.63727c-12.53139,-13.99512 -25.66217,-37.71844 -39.39442,-71.16611l0.00139,0z"/>
   </g>
  </g>
 </g>
</svg>